<svg id="Balance_Time" data-name="Balance Time" xmlns="http://www.w3.org/2000/svg" width="80" height="79.992" viewBox="0 0 80 79.992">
  <path id="Union_1" data-name="Union 1" d="M30.665,79.992a1.334,1.334,0,0,1-1.125-2.049l8.029-12.616H0V62.661H29.331v-36h-16v6.745a11.985,11.985,0,0,1,7.045,20.5A12,12,0,0,1,0,45.329a12.013,12.013,0,0,1,10.666-11.92V26.664H9.332A1.332,1.332,0,0,1,8,25.331v-8A1.332,1.332,0,0,1,9.332,16H31.443a10.667,10.667,0,1,1,18.44,0H70.662a1.332,1.332,0,0,1,1.333,1.333v8a1.332,1.332,0,0,1-1.333,1.333H69.334V35.6H66.668V26.664h-16v36H79.994v2.666H42.426l8.028,12.614a1.334,1.334,0,0,1-1.125,2.05Zm2.429-2.666H46.9L40,66.477Zm8.239-38.663v24H48V25.331A1.332,1.332,0,0,1,49.331,24h20V18.665H47.691a10.733,10.733,0,0,1-.9.713,10.535,10.535,0,0,1-6.129,1.953h0a10.546,10.546,0,0,1-7.025-2.666H10.667V24h20A1.332,1.332,0,0,1,32,25.331v37.33h6.666v-24ZM2.667,45.329A9.332,9.332,0,1,0,12,36,9.318,9.318,0,0,0,2.667,45.329Zm30-34.664a8,8,0,1,0,8-8A7.981,7.981,0,0,0,32.665,10.666Zm-27.332,36V44h5.333V38.663h2.666v6.666A1.332,1.332,0,0,1,12,46.662Z" fill="#5f6a72"/>
  <path id="Path_1599" data-name="Path 1599" d="M10.665,41.325A11.984,11.984,0,0,0,3.613,61.811,12,12,0,0,0,24,53.244,12.011,12.011,0,0,0,13.331,41.325,14.8,14.8,0,0,0,10.665,41.325ZM21.33,53.244a9.324,9.324,0,0,1-2.816,6.666A9.331,9.331,0,0,1,2.668,53.244a9.331,9.331,0,0,1,18.663,0" transform="translate(56.004 -7.905)" fill="#c03"/>
  <path id="Path_1600" data-name="Path 1600" d="M37.669,256.416H43V253.75H36.336A1.332,1.332,0,0,0,35,255.083v6.665h2.666Z" transform="translate(31.753 -209.42)" fill="#c03"/>
</svg>
