<svg xmlns="http://www.w3.org/2000/svg" width="17" height="25" viewBox="0 0 17 25">
  <path id="bookmark_icon_black" data-name="bookmark icon_black" d="M19.2,8.928V21.769L14,14a1.8,1.8,0,0,0-1.495-.8h0a1.8,1.8,0,0,0-1.495.8L5.8,21.758V1.8H19.2v3.33a.9.9,0,0,0,.9.9h0a.9.9,0,0,0,.9-.9V1a1,1,0,0,0-1-1H5A1,1,0,0,0,4,1V24a1,1,0,0,0,1,1h.261a1,1,0,0,0,.831-.443L12.5,15l6.4,9.557A1,1,0,0,0,19.73,25H20a1,1,0,0,0,1-1V8.928a.9.9,0,0,0-.9-.9h0A.9.9,0,0,0,19.2,8.928Z" transform="translate(-4 0.002)" fill="#1c283a"/>
</svg>
