<svg id="Connect" xmlns="http://www.w3.org/2000/svg" xmlns:xlink="http://www.w3.org/1999/xlink" width="80" height="80" viewBox="0 0 80 80">
  <defs>
    <clipPath id="clip-path">
      <rect id="Rectangle_247" data-name="Rectangle 247" width="80" height="80" fill="none"/>
    </clipPath>
  </defs>
  <g id="Group_512" data-name="Group 512" clip-path="url(#clip-path)">
    <path id="Path_1644" data-name="Path 1644" d="M78.311,0H67.645a1.331,1.331,0,0,0-1.333,1.331V11.448L55.1,22.667h1.892v1.878L68.2,13.333H78.309A1.331,1.331,0,0,0,79.642,12V1.333A1.331,1.331,0,0,0,78.311,0M76.976,10.667h-8v-8h8Z" transform="translate(0.358 0)" fill="#5f6a72"/>
    <path id="Path_1645" data-name="Path 1645" d="M45.131,66.28h-4V56.947h.016v-.008H38.479v2.832h-.015V66.28h-4a1.331,1.331,0,0,0-1.333,1.331V78.28a1.331,1.331,0,0,0,1.331,1.333H45.129a1.331,1.331,0,0,0,1.333-1.331V67.613a1.331,1.331,0,0,0-1.331-1.333M43.792,76.947H35.8v-8h7.995Z" transform="translate(0.216 0.387)" fill="#5f6a72"/>
    <path id="Path_1646" data-name="Path 1646" d="M78.311,66.293H68.2L56.989,55.081v1.871h-1.9v.008h0L66.313,68.177V78.293a1.331,1.331,0,0,0,1.331,1.333H78.309a1.331,1.331,0,0,0,1.333-1.331V67.626a1.331,1.331,0,0,0-1.331-1.333M76.976,76.96h-8v-8h8Z" transform="translate(0.358 0.374)" fill="#5f6a72"/>
    <path id="Path_1647" data-name="Path 1647" d="M78.3,33.109H67.633A1.331,1.331,0,0,0,66.3,34.44v4H56.977v2.667H66.3v4a1.331,1.331,0,0,0,1.331,1.333H78.3a1.332,1.332,0,0,0,1.333-1.331V34.442A1.331,1.331,0,0,0,78.3,33.109M76.964,43.772h-8v-8h8Z" transform="translate(0.371 0.225)" fill="#5f6a72"/>
    <path id="Path_1648" data-name="Path 1648" d="M1.333,13.333H11.445L22.652,24.545V22.667h1.892L13.329,11.448V1.331A1.331,1.331,0,0,0,12,0H1.331A1.331,1.331,0,0,0,0,1.333V12a1.331,1.331,0,0,0,1.333,1.331M2.665,2.667h8v8h-8Z" transform="translate(0 0)" fill="#5f6a72"/>
    <path id="Path_1649" data-name="Path 1649" d="M22.652,56.952V55.081L11.445,66.293H1.331A1.331,1.331,0,0,0,0,67.626V78.295a1.331,1.331,0,0,0,1.333,1.331H12a1.331,1.331,0,0,0,1.331-1.333V68.177L24.544,56.96h0v-.008h-1.9ZM10.663,76.96h-8v-8h8Z" transform="translate(0 0.374)" fill="#5f6a72"/>
    <path id="Path_1650" data-name="Path 1650" d="M1.333,46.442H12a1.331,1.331,0,0,0,1.331-1.333v-4h9.323V38.442H13.329v-4A1.331,1.331,0,0,0,12,33.109H1.331A1.331,1.331,0,0,0,0,34.442V45.111a1.332,1.332,0,0,0,1.333,1.331M2.665,35.775h8v8h-8Z" transform="translate(0 0.225)" fill="#5f6a72"/>
    <path id="Path_1651" data-name="Path 1651" d="M24.41,57.346H22.517V55.47l.013-.014V41.341h-.013V38.674h.014V24.56l-.012-.014V22.662H24.4l.015.014H38.527V13.342h-4A1.334,1.334,0,0,1,33.2,12.009V1.342A1.334,1.334,0,0,1,34.528.008H45.192a1.333,1.333,0,0,1,1.333,1.334V12.009a1.334,1.334,0,0,1-1.333,1.333h-4v9.334H55.3l.014-.014H57.19V57.338H24.417Zm.786-32V54.678H54.524V25.344ZM35.86,10.675h8v-8h-8Z" transform="translate(0.146 0)" fill="#c03"/>
  </g>
</svg>
