<svg id="Find_Motivation" data-name="Find Motivation" xmlns="http://www.w3.org/2000/svg" xmlns:xlink="http://www.w3.org/1999/xlink" width="65.333" height="80" viewBox="0 0 65.333 80">
  <defs>
    <clipPath id="clip-path">
      <rect id="Rectangle_211" data-name="Rectangle 211" width="65.333" height="80" fill="#5f6a72"/>
    </clipPath>
  </defs>
  <g id="Group_486" data-name="Group 486">
    <g id="Group_485" data-name="Group 485" clip-path="url(#clip-path)">
      <path id="Path_1570" data-name="Path 1570" d="M8.436,66.32,23.1,79.654A1.339,1.339,0,0,0,24,80H41.333a1.339,1.339,0,0,0,.9-.346L56.9,66.32a1.336,1.336,0,0,0,.436-.987V48h1.333a6.674,6.674,0,0,0,6.667-6.667V32a6.674,6.674,0,0,0-4-6.11V13.863a6.488,6.488,0,0,0-1.5-4.146L55.9,5a6.466,6.466,0,0,0-4.979-2.332H49.3A6.636,6.636,0,0,0,44,0H10.667a1.333,1.333,0,0,0-.776,2.416l4.24,3.039-.733.162A11.933,11.933,0,0,0,4,17.333V25.89A6.674,6.674,0,0,0,0,32v9.333A6.674,6.674,0,0,0,6.667,48H8V65.333a1.337,1.337,0,0,0,.436.987Zm46.231-1.576L40.817,77.333h-16.3L10.666,64.744V29.334a12.013,12.013,0,0,1,12-12h20a12.013,12.013,0,0,1,12,12Zm8-32.744v9.333a4,4,0,0,1-4,4H57.333v-16c0-.451-.028-.893-.068-1.333h1.4a4,4,0,0,1,4,4m-56-14.667a9.277,9.277,0,0,1,7.308-9.111l3.646-.81a1.334,1.334,0,0,0,.489-2.385L14.816,2.667H44a4,4,0,0,1,4,4V8h2.667V6.667a6.657,6.657,0,0,0-.135-1.333h.391a3.8,3.8,0,0,1,2.928,1.372l3.932,4.717a3.811,3.811,0,0,1,.884,2.439V25.334h-1.9a14.682,14.682,0,0,0-14.1-10.667h-20a14.685,14.685,0,0,0-14.1,10.667h-1.9Zm0,28a4,4,0,0,1-4-4V32a4,4,0,0,1,4-4h1.4c-.04.44-.068.883-.068,1.333v16Z" transform="translate(0 0)" fill="#5f6a72"/>
      <path id="Path_1571" data-name="Path 1571" d="M156.582,367.5h-24a1.332,1.332,0,0,0-1.333,1.333,13.333,13.333,0,0,0,26.667,0,1.332,1.332,0,0,0-1.333-1.333m-12,12A10.685,10.685,0,0,1,134,370.165h21.167a10.682,10.682,0,0,1-10.583,9.333Z" transform="translate(-111.249 -311.498)" fill="#c03"/>
    </g>
  </g>
  <path id="Path_1580" data-name="Path 1580" d="M155.841,248.548a3.546,3.546,0,1,0-3.546,3.546,3.55,3.55,0,0,0,3.546-3.546m-4.728,0a1.182,1.182,0,1,1,1.182,1.182,1.183,1.183,0,0,1-1.182-1.182" transform="translate(-128.488 -208.548)" fill="#5f6a72"/>
  <path id="Path_1581" data-name="Path 1581" d="M283.546,245a3.546,3.546,0,1,0,3.546,3.546A3.55,3.55,0,0,0,283.546,245m0,4.728a1.182,1.182,0,1,1,1.182-1.182,1.183,1.183,0,0,1-1.182,1.182" transform="translate(-242.02 -208.548)" fill="#5f6a72"/>
</svg>
