<svg id="Group_504" data-name="Group 504" xmlns="http://www.w3.org/2000/svg" xmlns:xlink="http://www.w3.org/1999/xlink" width="303.637" height="80.099" viewBox="0 0 303.637 80.099">
  <defs>
    <clipPath id="clip-path">
      <rect id="Rectangle_237" data-name="Rectangle 237" width="303.637" height="80.099" fill="none"/>
    </clipPath>
  </defs>
  <g id="Group_501" data-name="Group 501" transform="translate(0 0)">
    <g id="Group_500" data-name="Group 500" clip-path="url(#clip-path)">
      <path id="Path_1602" data-name="Path 1602" d="M0,0V47.255A30.609,30.609,0,0,0,7.672,67.5c8.748,9.836,21.991,12.276,23.47,12.523l.2.031.294.046.294-.044c.592-.086,14.575-2.233,23.72-12.559a29.724,29.724,0,0,0,4.983-7.758,32.67,32.67,0,0,0,2.65-12.5V0ZM61.676,47.218a31.065,31.065,0,0,1-2.516,11.87,28.111,28.111,0,0,1-4.713,7.337C45.677,76.33,32.268,78.377,31.7,78.46l-.057.007-.061-.009-.176-.028c-1.422-.235-14.149-2.578-22.53-12A29.04,29.04,0,0,1,1.611,47.213V1.611H61.676Z" transform="translate(0 0)" fill="#fff"/>
    </g>
  </g>
  <path id="Path_1603" data-name="Path 1603" d="M8.035,22.9v1.7H9.7V23.048L9.687,22.9Z" transform="translate(6.73 19.183)" fill="#fff"/>
  <g id="Group_503" data-name="Group 503" transform="translate(0 0)">
    <g id="Group_502" data-name="Group 502" clip-path="url(#clip-path)">
      <path id="Path_1604" data-name="Path 1604" d="M7.3,24.95l.031.1h4.779v-5.52l-.2.075a3.523,3.523,0,0,1-1.035.222c-.062,0-.123,0-.189.006-.031,0-.061,0-.09,0A5.67,5.67,0,0,1,8.2,19.312c-.075-.035-.147-.07-.233-.114a1.992,1.992,0,0,0-.8-.165,2.018,2.018,0,0,0-2.016,2.016c0,.656.125.891.956,1.8A5.273,5.273,0,0,1,7.3,24.95" transform="translate(4.312 15.94)" fill="#fff"/>
      <rect id="Rectangle_238" data-name="Rectangle 238" width="1.663" height="1.702" transform="translate(20.804 42.088)" fill="#fff"/>
      <path id="Path_1605" data-name="Path 1605" d="M1.9,36.781a27.213,27.213,0,0,0,6.8,18c6.927,7.789,17.184,10.5,20.464,11.189V12.515H1.9Zm8.533,6.347H7.774v-.2l.515-.062c.345-.04.345-.11.345-.954V39.846c0-.937-.057-1.014-.213-1.014a1.444,1.444,0,0,0-.265.031l-.515.085-.064-.2c.336-.132,1.742-.61,1.876-.656l.116.086V41.91c0,.843,0,.913.344.954l.516.062ZM22.6,36.392H8.4v-.509H22.6ZM8.4,34.855H22.6v.509H8.4Zm5.266,6.3A9.077,9.077,0,0,0,12.9,43.3l-.085.053a1.765,1.765,0,0,1-.79-.57A16,16,0,0,1,13.757,40.1a3.411,3.411,0,0,0,.509-1.156h-1.5c-.876,0-.807,0-1.038.61l-.206-.062a3.3,3.3,0,0,1,.344-1.283h3.14l.072.086a18.862,18.862,0,0,1-1.415,2.868m3.807,2.086c-.941,0-1.736-.68-1.736-2.117a2.722,2.722,0,0,1,2.655-3.039,1.99,1.99,0,0,1,.75.14l-.061.219a1.7,1.7,0,0,0-.5-.062c-1.062,0-1.874.876-1.874,2.64,0,1.117.32,1.922.985,1.922.516,0,.711-.531.711-1.023,0-.75-.43-1.413-1.033-1.413a1.9,1.9,0,0,0-.2.015l-.031-.14a1.25,1.25,0,0,1,2.093.983,1.694,1.694,0,0,1-1.755,1.876m4.3,0c-.939,0-1.736-.68-1.736-2.117a2.723,2.723,0,0,1,2.657-3.039,2,2,0,0,1,.75.14l-.062.219a1.675,1.675,0,0,0-.5-.062c-1.062,0-1.876.876-1.876,2.64,0,1.117.32,1.922.983,1.922.516,0,.711-.531.711-1.023,0-.75-.43-1.413-1.031-1.413a1.972,1.972,0,0,0-.2.015l-.031-.14a1.251,1.251,0,0,1,2.095.983,1.694,1.694,0,0,1-1.757,1.876m-6.26-23.6a1.243,1.243,0,1,1-1.242,1.242,1.243,1.243,0,0,1,1.242-1.242M9.891,23.007a3.494,3.494,0,0,1,1.466.32c.066.035.132.068.2.1a4.184,4.184,0,0,0,1.758.386l.061,0c.048,0,.1,0,.145,0a1.925,1.925,0,0,0,1.593-1.042h.825a1.927,1.927,0,0,0,1.6,1.042c.048,0,.1,0,.164.006h.04a4.183,4.183,0,0,0,1.646-.336,3.524,3.524,0,0,1,5.283,3.058,4.169,4.169,0,0,1-1.317,2.771.466.466,0,0,0-.059.062,3.812,3.812,0,0,0-.943,1.962c-.02.127-.033.255-.042.393v.432a3.8,3.8,0,0,0,.294,1.257v.854H8.4v-.8a3.778,3.778,0,0,0,.323-1.536,3.7,3.7,0,0,0-.046-.588,3.8,3.8,0,0,0-.948-1.983.649.649,0,0,0-.061-.068,4.1,4.1,0,0,1-1.306-2.762,3.533,3.533,0,0,1,3.53-3.528" transform="translate(1.588 10.481)" fill="#fff"/>
      <rect id="Rectangle_239" data-name="Rectangle 239" width="1.663" height="1.702" transform="translate(11.747 42.088)" fill="#fff"/>
      <path id="Path_1606" data-name="Path 1606" d="M14.488,24.95a5.278,5.278,0,0,1,1.185-2.1,4.144,4.144,0,0,0,.967-1.8,2.018,2.018,0,0,0-2.016-2.016,1.984,1.984,0,0,0-.774.154,1.881,1.881,0,0,0-.228.114l-.184.09a5.664,5.664,0,0,1-2.22.448c-.029,0-.059,0-.094,0-.059,0-.121,0-.208-.007A3.389,3.389,0,0,1,9.883,19.6l-.2-.077v5.533h4.772Z" transform="translate(8.111 15.94)" fill="#fff"/>
      <rect id="Rectangle_240" data-name="Rectangle 240" width="1.665" height="1.702" transform="translate(17.782 42.088)" fill="#fff"/>
      <path id="Path_1607" data-name="Path 1607" d="M23.179,24.355a5.838,5.838,0,0,0,.856-.13,3.7,3.7,0,0,1,.783-.1,3.588,3.588,0,0,1,1.483.309V23.8a4.189,4.189,0,0,0-1.49-.27,4.372,4.372,0,0,0-.9.116,5.374,5.374,0,0,1-.777.119,5,5,0,0,1-1.4-.1v.6a5.539,5.539,0,0,0,1.444.09" transform="translate(18.203 19.703)" fill="#fff"/>
      <path id="Path_1608" data-name="Path 1608" d="M23.179,23.476a5.838,5.838,0,0,0,.856-.13,3.7,3.7,0,0,1,.783-.1,3.588,3.588,0,0,1,1.483.309v-.634a4.189,4.189,0,0,0-1.49-.27,4.249,4.249,0,0,0-.9.116,5.374,5.374,0,0,1-.777.119,5,5,0,0,1-1.4-.1v.6a5.54,5.54,0,0,0,1.444.09" transform="translate(18.203 18.967)" fill="#fff"/>
      <path id="Path_1609" data-name="Path 1609" d="M23.179,22.6a5.8,5.8,0,0,0,.856-.13,3.7,3.7,0,0,1,.783-.1,3.556,3.556,0,0,1,1.483.311V22.04a3.983,3.983,0,0,0-1.49-.27,4.5,4.5,0,0,0-.9.116,5.385,5.385,0,0,1-.775.119,5.011,5.011,0,0,1-1.4-.1v.6a5.539,5.539,0,0,0,1.444.09" transform="translate(18.203 18.231)" fill="#fff"/>
      <path id="Path_1610" data-name="Path 1610" d="M23.179,20.84a5.838,5.838,0,0,0,.856-.13,3.7,3.7,0,0,1,.783-.1,3.588,3.588,0,0,1,1.483.309v-.634a4,4,0,0,0-1.49-.27,4.249,4.249,0,0,0-.9.116,5.373,5.373,0,0,1-.777.119,5,5,0,0,1-1.4-.1v.6a5.54,5.54,0,0,0,1.444.09" transform="translate(18.203 16.759)" fill="#fff"/>
      <path id="Path_1611" data-name="Path 1611" d="M23.179,21.719a5.838,5.838,0,0,0,.856-.13,3.7,3.7,0,0,1,.783-.1,3.623,3.623,0,0,1,1.483.309v-.634a4,4,0,0,0-1.49-.27,4.372,4.372,0,0,0-.9.116,5.385,5.385,0,0,1-.775.119,5.011,5.011,0,0,1-1.4-.1v.6a5.54,5.54,0,0,0,1.444.09" transform="translate(18.203 17.495)" fill="#fff"/>
      <path id="Path_1612" data-name="Path 1612" d="M23.179,19.961a5.8,5.8,0,0,0,.856-.13,3.7,3.7,0,0,1,.783-.1,3.582,3.582,0,0,1,1.483.309V19.4a4.135,4.135,0,0,0-1.49-.27,4.249,4.249,0,0,0-.9.116,5.385,5.385,0,0,1-.775.119,5.011,5.011,0,0,1-1.4-.1v.6a5.54,5.54,0,0,0,1.444.09" transform="translate(18.203 16.023)" fill="#fff"/>
      <path id="Path_1613" data-name="Path 1613" d="M24.294,30.572a5.676,5.676,0,0,1,3.888.48v-.487l-.145-.081a4.261,4.261,0,0,0-2.216-.6c-.046,0-.086-.006-.134-.006-.1,0-.209.011-.314.017a7.514,7.514,0,0,0-.985.11,7.723,7.723,0,0,1-3.059-.156l-.2-.044V18.876c-.171-.04-.345-.086-.522-.136V30.2a8.125,8.125,0,0,0,3.686.369" transform="translate(17.259 15.695)" fill="#fff"/>
      <path id="Path_1614" data-name="Path 1614" d="M24.759,31.506a5.686,5.686,0,0,1,3.888.474V31.5l-.068-.042-.077-.044a5.133,5.133,0,0,0-3.649-.478,8.83,8.83,0,0,1-4.109-.437l-.18-.055V19.066c-.169-.055-.336-.108-.511-.169V30.8a9.321,9.321,0,0,0,4.706.707" transform="translate(16.794 15.826)" fill="#fff"/>
      <path id="Path_1615" data-name="Path 1615" d="M28.379,23.346a6.055,6.055,0,0,0,.856.13,5.539,5.539,0,0,0,1.444-.09v-.6a5.016,5.016,0,0,1-1.4.1,5.415,5.415,0,0,1-.777-.119,3.949,3.949,0,0,0-2.387.154v.634a3.585,3.585,0,0,1,1.481-.309,3.723,3.723,0,0,1,.785.1" transform="translate(21.87 18.968)" fill="#fff"/>
      <path id="Path_1616" data-name="Path 1616" d="M29.491,30.572a8.127,8.127,0,0,0,3.686-.369V18.74c-.178.05-.351.1-.522.136V29.805l-.2.044a7.723,7.723,0,0,1-3.059.156,7.514,7.514,0,0,0-.985-.11c-.1-.006-.213-.017-.316-.017-.046,0-.086.006-.132.006a4.261,4.261,0,0,0-2.216.6l-.145.081v.487a5.675,5.675,0,0,1,3.888-.48" transform="translate(21.443 15.695)" fill="#fff"/>
      <path id="Path_1617" data-name="Path 1617" d="M28.379,22.468a5.838,5.838,0,0,0,.856.13,5.539,5.539,0,0,0,1.444-.09v-.6a5.011,5.011,0,0,1-1.4.1,5.457,5.457,0,0,1-.777-.119,4.335,4.335,0,0,0-.9-.116,3.983,3.983,0,0,0-1.49.27v.634a3.524,3.524,0,0,1,1.483-.309,3.721,3.721,0,0,1,.783.1" transform="translate(21.87 18.231)" fill="#fff"/>
      <path id="Path_1618" data-name="Path 1618" d="M17.723,65.975c3.278-.693,13.535-3.4,20.461-11.189a27.225,27.225,0,0,0,6.8-18.006V12.516H17.723Zm9.693-24.2-1.049-.553-1.049.553.2-1.169-.847-.827,1.172-.169.524-1.064.524,1.064,1.172.169-.849.827Zm10.068,0-1.049-.553-1.047.553.2-1.169-.849-.827,1.172-.169.524-1.064.524,1.064,1.172.169-.847.827Zm-5.79-7.721V23.989a5.42,5.42,0,0,1,.869-.522,5.145,5.145,0,0,1,2.135-.424,7.787,7.787,0,0,1,1.393.134,4.934,4.934,0,0,0,.6.072,8.187,8.187,0,0,0,2.258-.224l.311-.07v.608c.228-.057.461-.121.7-.195l.329-.1v.61c.222-.073.447-.153.676-.239l.344-.129V36.5l-.165.062A10,10,0,0,1,36,37.35a5.178,5.178,0,0,0-3.57.435h-.733Zm.232,6.992,1.172.171-.849.827.2,1.167L31.4,42.657l-1.047.551.2-1.167-.849-.827,1.172-.171.524-1.062ZM21.5,23.51l.344.129c.23.086.454.165.676.239v-.61l.329.1c.239.074.472.138.7.195v-.608l.311.07a8.187,8.187,0,0,0,2.258.224,4.934,4.934,0,0,0,.6-.072,7.807,7.807,0,0,1,1.395-.134,5.135,5.135,0,0,1,2.133.424,5.341,5.341,0,0,1,.869.522v13.8h-.733a5.178,5.178,0,0,0-3.57-.435,10,10,0,0,1-5.141-.792L21.5,36.5Z" transform="translate(14.843 10.482)" fill="#fff"/>
      <path id="Path_1619" data-name="Path 1619" d="M29.491,31.506A9.321,9.321,0,0,0,34.2,30.8V18.9c-.175.061-.344.114-.513.169V30.448l-.178.055a8.83,8.83,0,0,1-4.109.437,5.133,5.133,0,0,0-3.649.478l-.077.044L25.6,31.5v.476a5.686,5.686,0,0,1,3.888-.474" transform="translate(21.443 15.826)" fill="#fff"/>
      <path id="Path_1620" data-name="Path 1620" d="M28.379,24.224a5.8,5.8,0,0,0,.856.13,5.539,5.539,0,0,0,1.444-.09v-.6a5.016,5.016,0,0,1-1.4.1,5.415,5.415,0,0,1-.777-.119,4.464,4.464,0,0,0-.9-.116,4.175,4.175,0,0,0-1.49.27v.634a3.585,3.585,0,0,1,1.481-.309,3.723,3.723,0,0,1,.785.1" transform="translate(21.87 19.703)" fill="#fff"/>
      <path id="Path_1621" data-name="Path 1621" d="M28.379,20.71a5.8,5.8,0,0,0,.856.13,5.54,5.54,0,0,0,1.444-.09v-.6a5.016,5.016,0,0,1-1.4.1,5.414,5.414,0,0,1-.777-.119,4.336,4.336,0,0,0-.9-.116,3.983,3.983,0,0,0-1.49.27v.634a3.586,3.586,0,0,1,1.481-.309,3.723,3.723,0,0,1,.785.1" transform="translate(21.87 16.759)" fill="#fff"/>
      <path id="Path_1622" data-name="Path 1622" d="M28.379,19.831a5.837,5.837,0,0,0,.856.13,5.54,5.54,0,0,0,1.444-.09v-.6a5.011,5.011,0,0,1-1.4.1,5.457,5.457,0,0,1-.777-.119,4.214,4.214,0,0,0-.9-.116,4.1,4.1,0,0,0-1.49.27v.634a3.582,3.582,0,0,1,1.483-.309,3.721,3.721,0,0,1,.783.1" transform="translate(21.87 16.023)" fill="#fff"/>
      <path id="Path_1623" data-name="Path 1623" d="M28.379,21.589a6.055,6.055,0,0,0,.856.13,5.54,5.54,0,0,0,1.444-.09v-.6a5.016,5.016,0,0,1-1.4.1,5.415,5.415,0,0,1-.777-.119,4.214,4.214,0,0,0-.9-.116,3.947,3.947,0,0,0-1.49.27v.634a3.615,3.615,0,0,1,1.481-.309,3.722,3.722,0,0,1,.785.1" transform="translate(21.87 17.495)" fill="#fff"/>
      <path id="Path_1624" data-name="Path 1624" d="M91.493,44.182l1.523-.458V18.134c0-6.192,0-6.446,1.977-6.65l1.826-.153V10.24H84.494v1.091l1.825.153c1.979.2,1.979.458,1.979,6.65V38.749a12.212,12.212,0,0,1-9.184,4.061c-7.861,0-9.079-4.822-9.079-12.083V18.134c0-6.194,0-6.446,1.977-6.65l1.825-.153V10.24H61.509v1.091l1.828.153c1.977.2,1.977.456,1.977,6.65V31.54c0,6.9.864,12.945,11.365,12.945,6.749,0,10.959-3.2,11.668-3.2.761,0,1.167.709,1.876,1.419Z" transform="translate(51.514 8.576)" fill="#fff"/>
      <path id="Path_1625" data-name="Path 1625" d="M88.668,43.724h14.053V42.631l-1.828-.151c-2.841-.2-2.841-.456-2.841-6.652V11.66h2.639c7.155,0,7.256.763,8.372,6.652h1.216c0-.2-.254-6.955-.456-8.07H81.565c-.206,1.115-.456,7.866-.456,8.07h1.216c1.114-5.889,1.216-6.652,8.372-6.652h2.639V35.828c0,6.2,0,6.448-2.791,6.652l-1.876.151Z" transform="translate(67.929 8.577)" fill="#fff"/>
      <path id="Path_1626" data-name="Path 1626" d="M127.811,37.392c0-4.939,0-5.193.963-5.4l1.828-.153V30.752H117.714v1.091L119.54,32c3.548.2,3.548.458,3.548,6.67V42.5a25.977,25.977,0,0,1-5.933.658c-9.943,0-14.356-8.037-14.356-16.69,0-9.487,5.226-14.966,13.542-14.966,8.679,0,9.336,6.189,9.847,8.219l1.367-.3c-.221-2.5-.491-5.345-.812-7.512-1.318-.809-5.171-2.078-10.349-2.078-8.017,0-18.923,4.057-18.923,17.6,0,12.931,9.132,17.4,19.331,17.4a33.671,33.671,0,0,0,11.106-2.021s-.1-3.89-.1-5.419" transform="translate(81.633 8.229)" fill="#fff"/>
      <path id="Path_1627" data-name="Path 1627" d="M117.2,43.724h23.239a84.447,84.447,0,0,0,1.672-8.423l-1.266-.2c-1.016,4.162-1.523,7.2-9.6,7.2a29.148,29.148,0,0,1-5.514-.66V27.032h4.5c3.947,0,4.858.05,5.163,2.132l.254,1.722h1.34V21.757h-1.34l-.254,1.725c-.305,2.08-1.216,2.132-5.163,2.132h-4.5V11.66h4.2c7.163,0,7.262.761,8.381,6.191l1.216-.2c0-.456-.254-6.29-.458-7.405H117.2v1.09l1.828.153c1.977.2,1.977.459,1.977,6.655V35.817c0,6.205,0,6.459-1.977,6.663l-1.828.151Z" transform="translate(98.154 8.577)" fill="#fff"/>
      <path id="Path_1628" data-name="Path 1628" d="M141.443,12.319a16.217,16.217,0,0,1,3.144-.406c3.958,0,7.861,1.828,7.861,7.765,0,5.731-3.855,8.013-8.114,8.013h-2.89Zm-8.524,31.4H145.2V42.631l-1.828-.151c-1.924-.2-1.924-.458-1.924-6.657V29.112h1.876a5.055,5.055,0,0,1,3.146.662,23.088,23.088,0,0,1,3.142,4.981l2.029,3.914c1.523,2.793,3.855,5.055,7.2,5.055h3.908V42.631a5.293,5.293,0,0,1-2.539-.5c-1.266-.713-3.5-3.714-5.626-7.525-1.373-2.44-3.05-5.694-3.811-7.113,2.793-1.321,7-4.116,7-8.842,0-7.714-6.8-8.407-11.611-8.407H132.919v1.09l1.825.153c1.981.2,1.981.459,1.981,6.655V35.823c0,6.2,0,6.453-1.981,6.657l-1.825.151Z" transform="translate(111.32 8.577)" fill="#fff"/>
      <path id="Path_1629" data-name="Path 1629" d="M159.886,23.269c-2.742-1.621-4.921-3.245-4.921-6.24A5.382,5.382,0,0,1,160.5,11.5c5.729,0,6.543,4.414,7.049,6.949h1.27c-.119-1.476-.244-5.2-.509-7a14.18,14.18,0,0,0-7-1.621c-5.378,0-10.553,2.587-10.553,8.776,0,3.805,2.69,6.951,5.581,8.524l3.247,1.777c3.958,1.773,7.052,4.311,7.052,8.015,0,3.956-2.589,6.238-6.088,6.238-6.951,0-8.827-6.036-9.386-9.691l-1.624.408c.575,3.478,1.141,7.012,1.624,8.93a14.572,14.572,0,0,0,7.966,2.029c5.375,0,11.716-2.639,11.716-9.487,0-6.089-4.155-8.219-8.17-10.5Z" transform="translate(125.236 8.229)" fill="#fff"/>
      <path id="Path_1630" data-name="Path 1630" d="M52.564,27.747c1.555.081,3.221-.046,4.776-.046,6.007,0,9.678-3.223,9.678-9.224,0-6.53-3.725-10.536-10.382-10.536a20.774,20.774,0,0,0-4.063.533Zm12.956-.009C66.1,30.954,70.577,39.21,72.3,42.28c3.886,7.166,13.838,21.661,21.289,21.192l.86.007-.007,1.174-1.308.046C82.6,65.111,73.194,53.381,67.722,43.974c-2.227-3.822-4.384-8.265-6.31-12.249a4.606,4.606,0,0,0-1.751-2.095,7.658,7.658,0,0,0-3.511-.542c-.65-.006-2.58,0-3.585,0l-.006,8.453c0,1.555-.118,5.406.3,6.92.336,1.191,1.057,1.345,2.251,1.472l2.064.171v.956H42.794V46.1l2.065-.171c1.222-.127,1.962-.277,2.3-1.472.428-1.5.312-5.375.312-6.92V15.8c0-1.542.116-5.415-.312-6.915-.342-1.2-1.082-1.347-2.3-1.474l-2.065-.169V6.282h9.8c8.631,0,20.281-1.229,20.281,10.909,0,4.912-3.339,8.109-7.42,10.114a4.193,4.193,0,0,0,.061.434" transform="translate(35.84 5.232)" fill="#fff"/>
      <path id="Path_1631" data-name="Path 1631" d="M26.824,15.712l12.657-9.2,0,1.869-7.918,7.328Z" transform="translate(22.465 5.456)" fill="#fff"/>
      <path id="Path_1632" data-name="Path 1632" d="M46.771,20.53l-31.526,0L.782.764h.8L19.277,19.92l.379-.252L10.927.762l1.411.013L22.849,17.959l.421-.173L19.181.775h1.67l5.887,15.968.445-.086L26.528.775h1.825l2.416,15.536.45,0L33.7.775h1.782l-.656,15.863.45.1L41.167.775h1.685l-4.1,17.008.419.173L49.719.775h1.336l-8.693,18.9.379.252L60.459.775h.34l.38,0Z" transform="translate(0.655 0.638)" fill="#fff"/>
      <path id="Path_1633" data-name="Path 1633" d="M13.458,15.747.683,6.472.7,8.338l8.026,7.409Z" transform="translate(0.572 5.42)" fill="#fff"/>
      <path id="Path_1634" data-name="Path 1634" d="M164.949,25.205a2.781,2.781,0,1,1-2.789,2.782,2.776,2.776,0,0,1,2.789-2.782m0,6.1a3.321,3.321,0,1,0-3.33-3.32,3.3,3.3,0,0,0,3.33,3.32m.575-3.153a.949.949,0,0,0,1-1.022c0-.786-.608-.99-1.284-.99h-1.573V29.88h.542V28.154h.693l.954,1.725h.617Zm-.388-1.47c.448,0,.845.035.845.507,0,.507-.695.423-1.2.423h-.575v-.93Z" transform="translate(135.357 20.657)" fill="#fff"/>
    </g>
  </g>
</svg>
