<svg id="Get_on_Track" data-name="Get on Track" xmlns="http://www.w3.org/2000/svg" xmlns:xlink="http://www.w3.org/1999/xlink" width="90.777" height="80" viewBox="0 0 90.777 80">
  <defs>
    <clipPath id="clip-path">
      <rect id="Rectangle_248" data-name="Rectangle 248" width="90.777" height="80" fill="none"/>
    </clipPath>
  </defs>
  <g id="Group_514" data-name="Group 514" clip-path="url(#clip-path)">
    <path id="Path_1652" data-name="Path 1652" d="M59.613,44.531l.006,0a5.155,5.155,0,0,0-3.7,1.564,5.149,5.149,0,0,0-7.28-.116c-.039.039-.077.076-.115.116a5.1,5.1,0,0,0-5.913-1.046V31.968a5.175,5.175,0,0,0-10.348,0V48.356l-5.481,5.481a1.469,1.469,0,0,0-.433,1.044v7.4a1.47,1.47,0,0,0,.433,1.045l5.481,5.48v9.737a1.478,1.478,0,0,0,1.478,1.478H63.309a1.478,1.478,0,0,0,1.478-1.478V49.7a5.179,5.179,0,0,0-5.175-5.174m2.224,32.526H35.225v-8.87a1.471,1.471,0,0,0-.433-1.045l-5.481-5.48V55.494l2.957-2.957v2.345h2.957V31.968a2.218,2.218,0,1,1,4.435,0V51.924h2.957V49.7a2.218,2.218,0,0,1,4.435,0v2.218h2.957V49.7a2.218,2.218,0,1,1,4.435,0v2.218H57.4V49.7a2.218,2.218,0,0,1,4.435,0Z" transform="translate(-0.017 -0.017)" fill="#5f6a72"/>
    <path id="Path_1653" data-name="Path 1653" d="M90.777,7.02,88.81,4.809,76.5,15.749,59.747.39a1.478,1.478,0,0,0-2.084.084L39.3,20.246,18.172,6.164a1.477,1.477,0,0,0-1.91.23L0,24.135l2.181,2L17.589,9.326,38.7,23.405a1.482,1.482,0,0,0,1.9-.223L58.83,3.56l10.393,9.524,2.179,2,4.088,3.748a1.48,1.48,0,0,0,1.982.015Z" transform="translate(0 0)" fill="#5f6a72"/>
    <path id="Path_1654" data-name="Path 1654" d="M11.151,32.072h0L9.081,30l16.758-16.76c0-.049,2.073-2.122,2.133-2.131L38.645.436A1.444,1.444,0,0,1,39.672,0h.1a1.463,1.463,0,0,1,1.069.545L48.1,9.474,59.033,22.953,71.907,8.873,75.57,4.906a1.477,1.477,0,0,1,1.906-.226l5.705,3.8,2.543,1.7,5.059,3.372-1.64,2.458L76.876,7.831,71.5,13.676,60,26.129a1.39,1.39,0,0,1-1.014.479,1,1,0,0,1-.121,0,1.466,1.466,0,0,1-1.1-.544L47.951,13.975l-.014.014-1.883-2.321.013-.012L39.582,3.676l0,0L11.158,32.063Z" transform="translate(-0.006 0)" fill="#c03"/>
  </g>
</svg>
