<svg id="instagram_icon_black" data-name="instagram icon_black" xmlns="http://www.w3.org/2000/svg" width="25" height="25" viewBox="0 0 25 25">
  <path id="Path_1394" data-name="Path 1394" d="M477.271,399.188H467.9A7.813,7.813,0,0,0,460.083,407v9.375a7.814,7.814,0,0,0,7.813,7.813h9.375a7.813,7.813,0,0,0,7.812-7.813V407A7.813,7.813,0,0,0,477.271,399.188Zm5.469,17.187a5.475,5.475,0,0,1-5.469,5.469H467.9a5.475,5.475,0,0,1-5.469-5.469V407a5.475,5.475,0,0,1,5.469-5.469h9.375A5.475,5.475,0,0,1,482.74,407Z" transform="translate(-460.083 -399.188)" fill="#fff"/>
  <path id="Path_1395" data-name="Path 1395" d="M472.583,405.438a6.25,6.25,0,1,0,6.25,6.25A6.25,6.25,0,0,0,472.583,405.438Zm0,10.156a3.906,3.906,0,1,1,3.907-3.906A3.911,3.911,0,0,1,472.583,415.594Z" transform="translate(-460.083 -399.188)" fill="#fff"/>
  <circle id="Ellipse_7" data-name="Ellipse 7" cx="0.833" cy="0.833" r="0.833" transform="translate(18.386 4.948)" fill="#fff"/>
</svg>
