<svg id="Group_182" data-name="Group 182" xmlns="http://www.w3.org/2000/svg" width="50" height="44.444" viewBox="0 0 50 44.444">
  <path id="Path_1450" data-name="Path 1450" d="M18.914,0H3.325A2.575,2.575,0,0,0,.761,2.582v15.7a2.574,2.574,0,0,0,2.564,2.582h7.462q-.147,6.166-2.841,9.874A15.459,15.459,0,0,1,1.52,35.58,2.586,2.586,0,0,0,.248,39.045l1.847,3.924A2.556,2.556,0,0,0,5.433,44.23a28.49,28.49,0,0,0,8.6-5.619,21.813,21.813,0,0,0,5.861-9.393q1.584-5.235,1.584-14.294V2.582A2.574,2.574,0,0,0,18.914,0Z" transform="translate(28.522 0)" fill="#c03"/>
  <path id="Path_1451" data-name="Path 1451" d="M5.438,44.219A28.944,28.944,0,0,0,14,38.611a21.694,21.694,0,0,0,5.9-9.357q1.584-5.2,1.584-14.33V2.582A2.574,2.574,0,0,0,18.914,0H3.325A2.574,2.574,0,0,0,.761,2.582v15.7a2.574,2.574,0,0,0,2.564,2.582h7.462q-.147,6.166-2.841,9.874A15.46,15.46,0,0,1,1.52,35.58,2.587,2.587,0,0,0,.248,39.045L2.089,42.96A2.564,2.564,0,0,0,5.438,44.219Z" transform="translate(0 0)" fill="#c03"/>
</svg>
