<svg xmlns="http://www.w3.org/2000/svg" width="50" height="44.444" viewBox="0 0 50 44.444">
  <g id="Group_431" data-name="Group 431" transform="translate(-200 -2723.556)">
    <path id="Path_1450" data-name="Path 1450" d="M509.953,465.451H494.364a2.575,2.575,0,0,0-2.564,2.582v15.7a2.574,2.574,0,0,0,2.564,2.582h7.462q-.147,6.166-2.841,9.874a15.459,15.459,0,0,1-6.426,4.844,2.586,2.586,0,0,0-1.272,3.465l1.847,3.924a2.556,2.556,0,0,0,3.338,1.261,28.489,28.489,0,0,0,8.6-5.619,21.813,21.813,0,0,0,5.861-9.393q1.584-5.235,1.584-14.294V468.033A2.574,2.574,0,0,0,509.953,465.451Z" transform="translate(712.517 3233.451) rotate(180)" fill="#c03"/>
    <path id="Path_1451" data-name="Path 1451" d="M467.955,509.67a28.944,28.944,0,0,0,8.559-5.608,21.694,21.694,0,0,0,5.9-9.357q1.584-5.2,1.584-14.33V468.033a2.574,2.574,0,0,0-2.564-2.582H465.842a2.574,2.574,0,0,0-2.564,2.582v15.7a2.574,2.574,0,0,0,2.564,2.582H473.3q-.147,6.166-2.841,9.874a15.46,15.46,0,0,1-6.426,4.844,2.587,2.587,0,0,0-1.272,3.465l1.841,3.914A2.564,2.564,0,0,0,467.955,509.67Z" transform="translate(712.517 3233.451) rotate(180)" fill="#c03"/>
  </g>
</svg>
