<svg id="Raise_GPA" data-name="Raise GPA" xmlns="http://www.w3.org/2000/svg" xmlns:xlink="http://www.w3.org/1999/xlink" width="65.334" height="80" viewBox="0 0 65.334 80">
  <defs>
    <clipPath id="clip-path">
      <rect id="Rectangle_198" data-name="Rectangle 198" width="65.334" height="80" fill="#c03"/>
    </clipPath>
  </defs>
  <g id="Group_479" data-name="Group 479">
    <rect id="Rectangle_191" data-name="Rectangle 191" width="2.668" height="40.021" transform="translate(2.668 39.979)" fill="#5f6a72"/>
    <rect id="Rectangle_192" data-name="Rectangle 192" width="2.668" height="48.025" transform="translate(12 31.975)" fill="#5f6a72"/>
    <rect id="Rectangle_193" data-name="Rectangle 193" width="2.668" height="52.027" transform="translate(21.333 27.973)" fill="#5f6a72"/>
    <rect id="Rectangle_194" data-name="Rectangle 194" width="2.668" height="41.355" transform="translate(30.666 38.645)" fill="#5f6a72"/>
    <rect id="Rectangle_195" data-name="Rectangle 195" width="2.668" height="42.689" transform="translate(39.999 37.311)" fill="#5f6a72"/>
    <rect id="Rectangle_196" data-name="Rectangle 196" width="2.668" height="56.029" transform="translate(49.332 23.971)" fill="#5f6a72"/>
    <rect id="Rectangle_197" data-name="Rectangle 197" width="2.668" height="66.701" transform="translate(58.663 13.299)" fill="#5f6a72"/>
    <g id="Group_478" data-name="Group 478">
      <g id="Group_477" data-name="Group 477" clip-path="url(#clip-path)">
        <path id="Path_1563" data-name="Path 1563" d="M4,37.334a3.995,3.995,0,0,0,3.684-5.552l9.109-8.273a3.835,3.835,0,0,0,3.9-.082l10.227,8.512a3.958,3.958,0,0,0-.249,1.395,4,4,0,1,0,7.512-1.876L59.784,7.681A3.937,3.937,0,0,0,61.334,8,3.52,3.52,0,0,0,62.9,7.674,4.494,4.494,0,0,0,64.85,5.861,3.579,3.579,0,0,0,65.334,4a4,4,0,1,0-7.512,1.876L36.216,29.65a3.891,3.891,0,0,0-3.572.256L22.417,21.395a4,4,0,1,0-7.434.157L5.873,29.825A3.944,3.944,0,0,0,4,29.333a4,4,0,1,0,0,8ZM61.333,2.667a1.328,1.328,0,0,1,.884,2.324,1.3,1.3,0,0,1-1.792-.032A1.273,1.273,0,0,1,60,4,1.335,1.335,0,0,1,61.333,2.667ZM34.666,32a1.246,1.246,0,0,1,.907.374,1.275,1.275,0,0,1,.427.959,1.333,1.333,0,1,1-2.667,0,1.276,1.276,0,0,1,.324-.861A1.314,1.314,0,0,1,34.666,32m-16-13.333A1.335,1.335,0,0,1,20,20a1.276,1.276,0,0,1-.324.861,1.324,1.324,0,0,1-2.013,0,1.2,1.2,0,0,1-.33-.857A1.335,1.335,0,0,1,18.667,18.667ZM4,32a1.316,1.316,0,0,1,1,.476,1.205,1.205,0,0,1,.329.857A1.333,1.333,0,1,1,4,32" fill="#c03"/>
      </g>
    </g>
  </g>
</svg>
