<?xml version="1.0" encoding="utf-8"?>
<!-- Generator: Adobe Illustrator 26.1.0, SVG Export Plug-In . SVG Version: 6.00 Build 0)  -->
<svg version="1.1" id="Layer_1" xmlns="http://www.w3.org/2000/svg" xmlns:xlink="http://www.w3.org/1999/xlink" x="0px" y="0px"
	 viewBox="0 0 600 157.84" style="enable-background:new 0 0 600 157.84;" xml:space="preserve">
<style type="text/css">
	.st0{fill-rule:evenodd;clip-rule:evenodd;fill:#CC0033;}
	.st1{fill:#FFFFFF;}
	.st2{fill:#CC0033;}
</style>
<g>
	<g id="long_name">
		<g>
			<path d="M291.35,146.4c0,2.38-0.15,4.6-2.57,5.97c-0.8,0.44-1.94,0.84-3.76,0.84c-2.07,0-5.3-0.59-6.33-3.67
				c-0.36-1.12-0.36-2.38-0.36-3.52c0-1.62-0.1-8.33-0.11-9.12l0.13-0.13h0.93c1.14,0,1.94-0.02,3.08-0.08l0.11,0.13
				c0,1.52-0.08,3.21-0.08,5.08c0,0.89,0.02,5.13,0.19,6.04c0.21,1.14,0.84,2.38,2.78,2.38c0.23,0,1.71,0,2.32-1.5
				c0.3-0.7,0.3-2.38,0.3-3.08c0-3.06-0.13-5.74-0.23-8.84l0.11-0.13h0.8c0.99,0,1.67-0.02,2.64-0.08l0.11,0.13
				c-0.08,2.49-0.08,4.24-0.08,6.75V146.4z"/>
			<path d="M312.74,152.86h-1.39c-0.53,0-1.05,0.04-1.6,0.08l-0.19-0.11c-2.81-4.22-6.29-9.12-7.28-10.95
				c0.04,0.95,0.3,8.5,0.44,10.85l-0.13,0.13h-1.5c-0.61,0-1.22,0.04-1.81,0.08l-0.13-0.13c0.08-1.71,0.1-3.4,0.1-5.11
				c0-3.59-0.02-7.2-0.19-10.78l0.11-0.13h1.25c0.65,0,1.84-0.04,2.51-0.08l0.15,0.11c0.42,0.82,4.68,6.84,6.63,10.07
				c-0.1-3.1-0.25-9.24-0.34-9.98l0.11-0.13h1.29c0.34,0,1.94-0.08,1.94-0.08l0.13,0.13c-0.02,2.64-0.04,5.3-0.04,7.96
				c0,1.14,0,5.28,0.04,7.96L312.74,152.86z"/>
			<path d="M324.98,152.86h-1.86c-0.44,0-2.19,0.08-2.19,0.08l-0.11-0.13c0.08-2.13,0.11-4.22,0.11-6.33v-1.6
				c0-2.64-0.02-5.3-0.21-7.96l0.11-0.13h1.58c0.76,0,2.07-0.04,2.55-0.08l0.1,0.13c-0.08,3.12-0.11,6.27-0.11,9.41
				c0,2.17,0.04,4.33,0.15,6.48L324.98,152.86z"/>
			<path d="M335.09,152.8c-1.41-5.93-2.74-10.02-4.35-15.91l0.11-0.13c1.5,0,2.55-0.04,4.09-0.15l0.13,0.11
				c0.15,0.84,2.64,11.71,2.89,12.77c0.48-2.32,2.26-9.07,2.89-12.56l0.13-0.13h0.8c1.01,0,1.73-0.02,2.74-0.08l0.11,0.11
				c-1.52,5.23-3.19,10.55-4.43,15.89l-0.13,0.15h-0.91c-1.46,0-2.49,0.02-3.93,0.08L335.09,152.8z"/>
			<path d="M360.84,149.95c-0.08,0.93-0.11,1.92-0.15,2.78l-0.19,0.13c-3.33,0-6.67,0.02-10.04,0.04l-0.11-0.15
				c0.1-2.09,0.11-4.2,0.11-6.31v-4.71c0-1.62-0.02-3.21-0.15-4.81l0.13-0.13c2.49,0,8.5-0.04,10.02-0.04l0.11,0.13
				c-0.08,0.93-0.13,1.75-0.15,2.64l-0.13,0.13c-1.96-0.04-3.9-0.08-5.84-0.08c0,0.44-0.02,1.05-0.02,1.69c0,0.72,0,1.46,0.02,1.94
				c1.84,0,3.67-0.02,5.49-0.1l0.13,0.15c-0.08,0.87-0.11,1.71-0.15,2.59l-0.13,0.13c-3.35-0.02-5.34-0.02-5.34-0.02
				c0,1.35,0.02,2.66,0.04,3.99c2.09,0,4.16-0.04,6.25-0.15L360.84,149.95z"/>
			<path d="M371.77,152.86h-0.91c-1.1,0-1.9,0.02-2.98,0.08l-0.13-0.13c0.08-2.26,0.1-3.67,0.1-5.08c0-3.99-0.02-6.82-0.19-10.82
				l0.11-0.13h1.25c1.16,0,3.4-0.04,5.06-0.04c1.1,0,5.28,0.11,5.28,4.58c0,1.29-0.34,2.74-2.01,3.86c-0.46,0.3-0.95,0.48-1.1,0.55
				c0.84,1.48,3.27,5.38,4.43,6.84l-0.11,0.27c-1.6,0.02-2.7,0.04-4.26,0.15l-0.19-0.11c-0.23-0.46-1.69-3.57-3.1-5.87l-0.23-0.36
				c-0.42,0-0.89,0.02-1.1,0.02v1.03c0,1.81,0.08,3.21,0.21,5.06L371.77,152.86z M371.74,143.95h0.36c1.48,0,3.23-0.34,3.23-2.43
				c0-1.98-1.62-2.03-2.64-2.03c-0.34,0-0.59,0-0.93,0.02c-0.02,1.01-0.02,1.69-0.02,2.66V143.95z"/>
			<path d="M386.12,152.18c0.1-1.18,0.13-2.03,0.15-3.21l0.21-0.08c0.87,0.67,1.98,1.41,3.95,1.41c1.71,0,2.72-0.8,2.72-1.9
				c0-1.05-1.01-1.67-2.7-2.39l-0.84-0.36c-1.25-0.55-3.42-1.62-3.42-4.39c0-2.81,1.86-4.83,5.72-4.83c2.13,0,3.31,0.42,4.28,0.84
				l0.11,0.13c-0.1,1.06-0.15,1.9-0.21,3l-0.21,0.1c-1.48-1.16-2.97-1.27-3.5-1.27c-1.48,0-2.28,0.7-2.28,1.56
				c0,1.1,1.03,1.5,2.43,2.07l1.1,0.44c2.05,0.82,3.44,2.2,3.44,4.73c0,3.12-2.3,5.17-6.18,5.17c-2.43,0-3.63-0.46-4.68-0.84
				L386.12,152.18z"/>
			<path d="M408.12,152.86h-1.86c-0.44,0-2.19,0.08-2.19,0.08l-0.11-0.13c0.08-2.13,0.11-4.22,0.11-6.33v-1.6
				c0-2.64-0.02-5.3-0.21-7.96l0.11-0.13h1.58c0.76,0,2.07-0.04,2.55-0.08l0.1,0.13c-0.08,3.12-0.11,6.27-0.11,9.41
				c0,2.17,0.04,4.33,0.15,6.48L408.12,152.86z"/>
			<path d="M422.11,152.86h-0.78c-1.22,0-2.07,0.02-3.29,0.08l-0.11-0.13c0.11-3.8,0.15-6.5,0.15-10.32c0-1.01-0.02-2.19-0.02-2.74
				c-1.14,0-2.32,0.08-3.69,0.1l-0.11-0.11c0.04-1.05,0.11-1.84,0.15-2.81l0.13-0.15h7.45c1.41,0,2.41,0,3.84-0.02l0.11,0.11
				c-0.1,1.03-0.11,1.79-0.15,2.83l-0.13,0.13c-1.29-0.08-2.24-0.1-3.54-0.1c-0.04,1.25-0.08,2.15-0.08,3.42
				c0,1.14,0.1,8.76,0.15,9.6L422.11,152.86z"/>
			<path d="M435.96,152.8c0.15-2.19,0.15-3.76,0.15-5.97v-0.7c-1.73-3.25-3.42-5.87-5.27-9.16l0.1-0.19
				c1.6-0.02,2.72-0.08,4.33-0.15l0.15,0.11c1.03,2.3,1.86,3.9,3.06,6.1c1.16-2.15,1.82-3.74,2.87-5.93l0.15-0.13h0.82
				c1.01,0,1.71-0.02,2.74-0.08l0.08,0.15c-1.84,3.4-3.21,5.76-5.04,9.16v0.91c0,2.15,0.02,3.65,0.13,5.8l-0.13,0.13h-0.65
				c-1.25,0-2.15,0.02-3.36,0.08L435.96,152.8z"/>
			<path d="M462.1,157.67c0,0,0.08-4.94,0.08-6.52v-9.1c0-1.35-0.08-5.72-0.08-6.48l0.15-0.15c0.53,0,0.93,0.02,1.24,0.02
				c0.46,0,0.89-0.02,1.79-0.04l0.13,0.19c0,0.42-0.02,0.99-0.02,3.17v15.59c0,0.53,0.08,3.31,0.08,3.31l-0.15,0.15h-0.67
				c-0.93,0-1.25,0-2.38,0.04L462.1,157.67z"/>
			<path d="M495.74,152.4c-0.8,0.34-2.07,0.8-3.97,0.8c-5.13,0-8.15-3.48-8.15-8.33c0-4.71,2.76-8.46,7.96-8.46
				c2.01,0,3.4,0.48,4.22,0.82l0.11,0.13c-0.1,1.16-0.15,1.96-0.23,3.12l-0.19,0.08c-0.67-0.53-1.69-1.12-3.23-1.12
				c-3.35,0-4.37,2.89-4.37,5.36c0,3.99,2.51,5.25,4.43,5.25c1.9,0,3.21-1.01,3.55-1.27l0.15,0.1c-0.08,1.25-0.11,2.15-0.15,3.4
				L495.74,152.4z"/>
			<path d="M515.99,152.86h-0.72c-1.22,0-2.03,0.02-3.23,0.08l-0.15-0.13c-0.34-1.58-0.59-2.66-0.99-4.22
				c-0.48,0-1.62-0.02-2.41-0.02c-0.84,0-2.05,0.02-2.51,0.02c-0.44,1.52-0.72,2.6-1.12,4.14l-0.15,0.13h-3.55l-0.1-0.15
				c2.05-5.82,3.46-9.92,5.28-15.8l0.15-0.13h1.05c1.48,0,2.55-0.02,4.03-0.08l0.15,0.13c1.46,5.63,2.59,9.58,4.2,15.21l0.19,0.65
				L515.99,152.86z M508.69,139.31c-0.27,0.99-0.49,1.67-1.94,6.52c0.59,0.02,1.18,0.02,1.79,0.02c0.55,0,1.12,0,1.69-0.02
				C510.23,145.83,509.07,140.81,508.69,139.31z"/>
			<path d="M540.35,152.86h-0.76c-1.18,0-2,0.02-3.19,0.08l-0.1-0.13c-0.02-4.28-0.08-10.28-0.08-13.04
				c-0.19,0.78-3.42,12.6-3.52,12.96l-0.13,0.13h-0.65c-1.03,0-1.75,0.02-2.76,0.08l-0.13-0.13c-0.7-2.95-3.17-11.88-3.4-13.15
				c0,0.93-0.3,11.99-0.3,13.08l-0.13,0.13h-0.72c-0.91,0-1.58,0.02-2.49,0.08l-0.11-0.13c0.38-5.3,0.7-10.51,0.82-15.89l0.13-0.13
				h1.14c1.58,0,2.7-0.02,4.26-0.08l0.11,0.13c-0.02,0.1,2.2,8.55,2.78,11.02c0.7-2.66,2.89-10.55,3.04-10.97l0.13-0.13h1.14
				c1.52,0,2.62-0.02,4.14-0.08l0.13,0.13c0.09,5.19,0.46,10.63,0.7,15.89L540.35,152.86z"/>
			<path d="M548.18,152.78c0-1.98,0.08-4.28,0.08-5.93c0-3.31-0.02-6.63-0.19-9.94l0.13-0.13c2.43-0.04,3.73-0.11,5.99-0.11
				c2.19,0,3.99,0.1,5.65,1.71c1.71,1.67,2.05,3.76,2.05,6.03c0,1.94-0.3,3.82-1.39,5.49c-1.75,2.7-4.68,3.04-7.85,3.04h-4.35
				L548.18,152.78z M556.43,148.72c1.27-1.33,1.27-3.88,1.27-4.26c0-1.56-0.25-2.89-1.12-3.82c-0.91-0.99-2.24-1.01-2.76-1.01
				c-0.55,0-1.1,0.02-1.62,0.08c-0.02,1.24-0.02,2.49-0.02,3.74c0,2.05,0.08,4.85,0.08,6.5
				C554.02,149.93,555.31,149.88,556.43,148.72z"/>
			<path d="M579.38,149.95c-0.08,0.93-0.11,1.92-0.15,2.78l-0.19,0.13c-3.33,0-6.67,0.02-10.04,0.04l-0.11-0.15
				c0.1-2.09,0.11-4.2,0.11-6.31v-4.71c0-1.62-0.02-3.21-0.15-4.81l0.13-0.13c2.49,0,8.5-0.04,10.02-0.04l0.11,0.13
				c-0.08,0.93-0.13,1.75-0.15,2.64l-0.13,0.13c-1.96-0.04-3.9-0.08-5.84-0.08c0,0.44-0.02,1.05-0.02,1.69c0,0.72,0,1.46,0.02,1.94
				c1.84,0,3.67-0.02,5.49-0.1l0.13,0.15c-0.08,0.87-0.11,1.71-0.15,2.59l-0.13,0.13c-3.35-0.02-5.34-0.02-5.34-0.02
				c0,1.35,0.02,2.66,0.04,3.99c2.09,0,4.16-0.04,6.25-0.15L579.38,149.95z"/>
			<path d="M599.89,152.86h-1.39c-0.53,0-1.05,0.04-1.6,0.08l-0.19-0.11c-2.81-4.22-6.29-9.12-7.28-10.95
				c0.04,0.95,0.3,8.5,0.44,10.85l-0.13,0.13h-1.5c-0.61,0-1.22,0.04-1.81,0.08l-0.13-0.13c0.08-1.71,0.09-3.4,0.09-5.11
				c0-3.59-0.02-7.2-0.19-10.78l0.11-0.13h1.25c0.65,0,1.84-0.04,2.51-0.08l0.15,0.11c0.42,0.82,4.68,6.84,6.63,10.07
				c-0.09-3.1-0.25-9.24-0.34-9.98l0.11-0.13h1.29c0.34,0,1.94-0.08,1.94-0.08l0.13,0.13c-0.02,2.64-0.04,5.3-0.04,7.96
				c0,1.14,0,5.28,0.04,7.96L599.89,152.86z"/>
		</g>
	</g>
	<g id="Rutgers">
		<g>
			<path class="st0" d="M278.73,102.47l2.97-0.89v-49.8c0-12.05,0-12.55,3.86-12.94l3.55-0.3V36.4h-23.99v2.13l3.55,0.3
				c3.86,0.4,3.86,0.89,3.86,12.94V91.9c-1.48,1.79-7.6,7.91-17.87,7.91c-15.3,0-17.68-9.39-17.68-23.51V51.8
				c0-12.05,0-12.55,3.86-12.94l3.55-0.3v-2.13h-23.99v2.13l3.55,0.3c3.84,0.4,3.84,0.89,3.84,12.94v26.1
				c0,13.44,1.67,25.19,22.13,25.19c13.13,0,21.33-6.22,22.71-6.22c1.48,0,2.28,1.39,3.65,2.76L278.73,102.47z"/>
			<path class="st0" d="M305.17,101.58h27.35v-2.13l-3.55-0.29c-5.53-0.4-5.53-0.89-5.53-12.94V39.18h5.13
				c13.91,0,14.12,1.48,16.29,12.94h2.38c0-0.4-0.49-13.53-0.89-15.7h-54.99c-0.4,2.17-0.89,15.32-0.89,15.7h2.38
				c2.17-11.46,2.38-12.94,16.29-12.94h5.13v47.04c0,12.05,0,12.55-5.44,12.94l-3.65,0.29L305.17,101.58L305.17,101.58z"/>
			<path class="st0" d="M408.02,88.6c0-9.62,0-10.11,1.88-10.51l3.55-0.3v-2.13h-25.07v2.13l3.55,0.3c6.9,0.4,6.9,0.89,6.9,12.98
				v7.45c-3.46,0.89-7.98,1.29-11.56,1.29c-19.35,0-27.94-15.64-27.94-32.48c0-18.46,10.17-29.12,26.36-29.12
				c16.88,0,18.17,12.05,19.16,16l2.66-0.59c-0.44-4.87-0.95-10.4-1.58-14.62c-2.57-1.58-10.07-4.05-20.15-4.05
				c-15.61,0-36.84,7.91-36.84,34.27c0,25.17,17.77,33.87,37.62,33.87c10.57,0,18.11-2.83,21.61-3.93
				C408.21,99.13,408.02,91.56,408.02,88.6z"/>
			<path class="st0" d="M419.52,101.58h45.22c1.29-5.34,2.39-10.26,3.25-16.38l-2.47-0.4c-1.98,8.1-2.97,14.03-18.68,14.03
				c-3.54,0-7.18-0.59-10.74-1.29V69.09h8.76c7.68,0,9.47,0.1,10.04,4.14l0.49,3.35h2.6V58.81h-2.6l-0.49,3.36
				c-0.59,4.05-2.36,4.14-10.04,4.14h-8.76V39.18h8.17c13.93,0,14.14,1.48,16.31,12.05l2.38-0.4c0-0.89-0.49-12.24-0.89-14.41H419.5
				v2.13l3.55,0.3c3.84,0.4,3.84,0.89,3.84,12.96v34.4c0,12.07,0,12.56-3.84,12.96l-3.55,0.29v2.11H419.52z"/>
			<path class="st0" d="M475.73,101.58h23.89v-2.13l-3.55-0.29c-3.74-0.4-3.74-0.89-3.74-12.96V73.14h3.65c2.07,0,4.54,0,6.12,1.29
				c1.27,1.08,3.55,4.85,6.12,9.69l3.95,7.62c2.97,5.44,7.51,9.85,14.03,9.85h7.6v-2.13c-2.17,0-3.95-0.38-4.94-0.99
				c-2.47-1.39-6.8-7.22-10.95-14.64c-2.66-4.75-5.93-11.08-7.41-13.84c5.44-2.57,13.63-8,13.63-17.2
				c0-15.02-13.23-16.37-22.6-16.37h-25.77v2.13l3.55,0.3c3.84,0.4,3.84,0.89,3.84,12.96v34.42c0,12.07,0,12.56-3.84,12.96
				l-3.55,0.29v2.07H475.73z M492.32,40.47c1.98-0.4,4.05-0.8,6.12-0.8c7.7,0,15.3,3.55,15.3,15.11c0,11.16-7.51,15.61-15.8,15.61
				h-5.63V40.47z"/>
			<path class="st0" d="M555.29,61.11c-5.34-3.16-9.58-6.31-9.58-12.15c0-6.61,5.04-10.76,10.76-10.76
				c11.16,0,12.74,8.59,13.72,13.53h2.47c-0.23-2.87-0.48-10.11-0.99-13.63c-2.57-1.58-7.51-3.16-13.63-3.16
				c-10.47,0-20.53,5.04-20.53,17.09c0,7.39,5.23,13.51,10.85,16.59l6.33,3.46c7.7,3.46,13.72,8.4,13.72,15.61
				c0,7.7-5.04,12.15-11.84,12.15c-13.53,0-17.18-11.75-18.27-18.86l-3.16,0.8c1.12,6.77,2.22,13.65,3.16,17.37
				c3.06,1.88,7.79,3.95,15.51,3.95c10.45,0,22.81-5.13,22.81-18.46c0-11.86-8.08-16-15.89-20.43L555.29,61.11z"/>
			<path class="st0" d="M197.68,63.96c1.12,6.25,9.85,22.33,13.19,28.3c7.57,13.95,26.93,42.16,41.44,41.25h1.67l-0.02,2.28
				l-2.55,0.1c-20.49,0.8-38.79-22.03-49.46-40.33c-4.33-7.45-8.53-16.08-12.28-23.84c-0.93-2-2.11-3.29-3.42-4.09
				c-2.01-1.06-4.66-1.05-6.82-1.05c-1.27-0.02-5.02,0-6.98,0v16.44c0,3.02-0.23,10.51,0.59,13.46c0.65,2.32,2.05,2.62,4.37,2.87
				l4.01,0.32v1.86h-27.98v-1.86l4.01-0.32c2.38-0.25,3.82-0.53,4.49-2.87c0.84-2.91,0.61-10.45,0.61-13.46V40.7
				c0-3,0.23-10.55-0.61-13.46c-0.67-2.32-2.11-2.62-4.49-2.87l-4.01-0.32v-1.86h19.08c16.8,0,39.46-2.39,39.46,21.23
				c0,9.56-6.5,15.78-14.45,19.69C197.59,63.51,197.68,63.96,197.68,63.96z M172.46,63.98c3.02,0.15,6.27-0.1,9.29-0.1
				c11.69,0,18.84-6.27,18.84-17.96c0-12.7-7.24-20.51-20.21-20.51c-2.68,0-5.3,0.51-7.91,1.05L172.46,63.98z"/>
		</g>
		<path class="st1" d="M0,0v92.07c0.34,15.4,5.38,28.66,14.94,39.44c17.05,19.16,42.84,23.91,45.73,24.41
			c0.21,0.04,0.34,0.06,0.4,0.06l0.57,0.1l0.57-0.08c1.16-0.17,28.4-4.35,46.21-24.46c4.03-4.56,7.3-9.64,9.71-15.11
			c3.23-7.36,4.96-15.53,5.17-24.37V0.02H0V0z"/>
		<path class="st2" d="M80.04,6.71h-9.81l-1.08,27.01c0.29,0.06,0.57,0.11,0.87,0.17L80.04,6.71z"/>
		<polygon class="st2" points="96.05,41.27 116.65,26.29 116.65,7.95 92.42,41.27 		"/>
		<path class="st2" d="M84.57,40.07l30.85-33.38h-16.4L83.82,39.57C84.07,39.75,84.32,39.92,84.57,40.07z"/>
		<path class="st2" d="M77.61,36.25L95.72,6.69h-11.9l-7.03,29.21C77.06,36.02,77.32,36.13,77.61,36.25z"/>
		<polygon class="st2" points="116.65,41.27 116.65,30.77 105.28,41.27 		"/>
		<path class="st2" d="M61.64,33.02c0.17,0,0.34,0,0.51,0l4.16-26.33h-9.2l4.16,26.33C61.41,33.04,61.53,33.04,61.64,33.02z"/>
		<path class="st2" d="M54.25,33.7L53.16,6.69h-9.81l10.02,27.18C53.68,33.81,53.96,33.76,54.25,33.7z"/>
		<polygon class="st2" points="31,41.27 6.77,7.95 6.77,26.29 27.37,41.27 		"/>
		<path class="st2" d="M39.59,39.57L24.41,6.69H8l30.85,33.38C39.1,39.92,39.35,39.75,39.59,39.57z"/>
		<path class="st2" d="M46.63,35.92L39.59,6.71h-11.9l18.11,29.56C46.07,36.13,46.36,36.02,46.63,35.92z"/>
		<polygon class="st2" points="6.77,30.77 6.77,41.27 18.13,41.27 		"/>
		<path class="st2" d="M0,0v92.07c0.34,15.4,5.38,28.66,14.94,39.44c17.05,19.16,42.84,23.91,45.73,24.41
			c0.21,0.04,0.34,0.06,0.4,0.06l0.57,0.1l0.57-0.08c1.16-0.17,28.4-4.35,46.21-24.46c4.03-4.56,7.3-9.64,9.71-15.11
			c3.23-7.36,4.96-15.53,5.17-24.37V0.02H0V0z M120.17,92c-0.19,8.38-1.84,16.16-4.9,23.13c-2.28,5.17-5.36,9.98-9.18,14.29
			c-17.09,19.29-43.2,23.28-44.33,23.44l-0.11,0.02l-0.11-0.02c-0.06,0-0.17-0.02-0.34-0.06c-2.78-0.46-27.56-5.02-43.89-23.38
			C8.23,119.24,3.48,106.63,3.14,92V3.16h117.03V92z"/>
		<polygon class="st2" points="28.78,82 28.78,85.31 32.01,85.31 32.01,82.28 31.99,82 		"/>
		<path class="st2" d="M22.62,79.66l0.06,0.21h9.31V69.11l-0.38,0.15c-0.65,0.25-1.31,0.4-2.01,0.44c-0.11,0-0.23,0-0.36,0.02
			c-0.06,0-0.11,0-0.17,0c-1.62,0-3.19-0.34-4.66-1.03c-0.15-0.08-0.29-0.13-0.46-0.23c-0.49-0.21-1.03-0.32-1.56-0.32
			c-2.17,0-3.93,1.77-3.93,3.93c0,1.27,0.25,1.73,1.86,3.5C21.38,76.75,22.16,78.14,22.62,79.66z"/>
		<rect x="40.52" y="82" class="st2" width="3.25" height="3.31"/>
		<path class="st2" d="M6.79,92.09c0.3,13.74,4.77,25.55,13.25,35.09c13.5,15.17,33.47,20.45,39.86,21.8V44.82H6.77v47.27H6.79z
			 M23.42,104.45h-5.17v-0.4l1.01-0.11c0.67-0.08,0.67-0.21,0.67-1.86v-4.01c0-1.82-0.11-1.98-0.42-1.98
			c-0.19,0-0.34,0.04-0.51,0.06l-1.01,0.17l-0.11-0.4c0.65-0.27,3.4-1.18,3.65-1.27l0.23,0.17v7.28c0,1.63,0,1.79,0.67,1.86
			l1.01,0.11V104.45z M47.14,90.34v0.99H19.46v-0.99H47.14z M19.46,89.32v-0.99h27.68v0.99H19.46z M29.73,100.61
			c-0.78,1.86-0.99,1.98-1.5,4.16l-0.17,0.11c-0.68-0.3-1.14-0.57-1.54-1.1c0.17-1.06,2.05-3.12,3.38-5.23
			c0.7-1.14,0.87-1.71,0.99-2.26h-2.93c-1.71,0-1.56,0-2.03,1.18l-0.4-0.11c0.1-0.86,0.23-1.71,0.67-2.49h6.12l0.13,0.17
			C32.07,96.58,31.36,97.32,29.73,100.61z M37.14,104.68c-1.82,0-3.38-1.33-3.38-4.12c0-4.12,2.72-5.91,5.17-5.91
			c0.72,0,1.24,0.19,1.46,0.27l-0.11,0.42c-0.27-0.06-0.44-0.11-0.97-0.11c-2.07,0-3.65,1.71-3.65,5.15c0,2.19,0.63,3.74,1.92,3.74
			c1.01,0,1.39-1.03,1.39-2c0-1.46-0.84-2.76-2.01-2.76c-0.13,0-0.27,0.02-0.4,0.04l-0.06-0.27c0.34-0.27,0.82-0.65,1.67-0.65
			c1.25,0,2.41,1.1,2.41,2.57C40.56,103.44,39.04,104.68,37.14,104.68z M45.52,104.68c-1.82,0-3.38-1.33-3.38-4.12
			c0-4.12,2.72-5.91,5.17-5.91c0.72,0,1.24,0.19,1.46,0.27l-0.11,0.42c-0.27-0.06-0.44-0.11-0.97-0.11c-2.07,0-3.65,1.71-3.65,5.15
			c0,2.19,0.63,3.74,1.92,3.74c1.01,0,1.39-1.03,1.39-2c0-1.46-0.84-2.76-2.01-2.76c-0.13,0-0.27,0.02-0.4,0.04l-0.06-0.27
			c0.34-0.27,0.82-0.65,1.67-0.65c1.25,0,2.41,1.1,2.41,2.57C48.94,103.44,47.44,104.68,45.52,104.68z M33.32,58.7
			c1.33,0,2.41,1.08,2.41,2.41s-1.08,2.41-2.41,2.41c-1.33,0-2.41-1.08-2.41-2.41C30.91,59.8,31.99,58.7,33.32,58.7z M22.37,65.25
			c1.01,0,1.96,0.21,2.85,0.63c0.13,0.08,0.27,0.13,0.4,0.19c1.08,0.49,2.24,0.76,3.42,0.76h0.11c0.1,0,0.19,0,0.29,0
			c1.31-0.08,2.49-0.86,3.1-2.03h1.6c0.61,1.18,1.79,1.94,3.12,2.03c0.1,0,0.19,0,0.32,0h0.08c1.1,0,2.17-0.21,3.21-0.67
			c0.27-0.15,0.51-0.29,0.78-0.38c0.84-0.34,1.73-0.53,2.64-0.53c3.78,0,6.88,3.08,6.88,6.88c0,1.77-0.91,3.67-2.57,5.4
			c-0.04,0.04-0.08,0.08-0.11,0.11c-0.97,1.08-1.62,2.39-1.84,3.82c-0.04,0.25-0.06,0.49-0.08,0.76v0.84
			c0.06,0.86,0.25,1.67,0.57,2.45v1.67H19.46v-1.56c0.42-0.95,0.63-1.96,0.63-2.98c0-0.38-0.04-0.76-0.1-1.14
			c-0.23-1.44-0.86-2.78-1.84-3.86c-0.04-0.04-0.08-0.1-0.11-0.13c-1.67-1.75-2.55-3.59-2.55-5.38
			C15.49,68.33,18.57,65.25,22.37,65.25z"/>
		<rect x="22.89" y="82" class="st2" width="3.25" height="3.31"/>
		<path class="st2" d="M44.04,79.66c0.46-1.54,1.22-2.91,2.3-4.09c0.19-0.23,1.88-2.26,1.88-3.52c0-2.17-1.77-3.93-3.93-3.93
			c-0.53,0-1.03,0.1-1.5,0.3c-0.15,0.06-0.3,0.13-0.44,0.23l-0.36,0.17c-1.37,0.57-2.83,0.87-4.31,0.87c-0.06,0-0.11,0-0.19,0
			c-0.11,0-0.23,0-0.4-0.02c-0.68-0.04-1.37-0.19-2.01-0.46l-0.38-0.15v10.78h9.29L44.04,79.66z"/>
		<rect x="34.65" y="82" class="st2" width="3.25" height="3.31"/>
		<path class="st2" d="M80.63,85.84c0.7-0.06,1.22-0.15,1.67-0.25c0.49-0.1,0.93-0.19,1.52-0.21c0.93-0.02,1.9,0.19,2.89,0.61v-1.24
			c-0.97-0.36-1.96-0.53-2.91-0.53c-0.72,0.02-1.24,0.11-1.75,0.23c-0.44,0.1-0.89,0.19-1.52,0.23c-0.91,0.06-1.82,0-2.74-0.19v1.18
			C78.75,85.84,79.7,85.92,80.63,85.84z"/>
		<path class="st2" d="M80.63,82.7c0.7-0.06,1.22-0.15,1.67-0.25c0.49-0.1,0.93-0.19,1.52-0.21c0.93-0.02,1.9,0.19,2.89,0.61v-1.24
			c-0.97-0.36-1.96-0.53-2.91-0.53c-0.72,0.02-1.24,0.11-1.75,0.23c-0.44,0.1-0.89,0.19-1.52,0.23c-0.91,0.06-1.82,0-2.74-0.19v1.18
			C78.75,82.7,79.7,82.76,80.63,82.7z"/>
		<path class="st2" d="M80.63,79.55c0.7-0.06,1.22-0.15,1.67-0.25c0.49-0.1,0.93-0.19,1.52-0.21c0.93-0.04,1.92,0.19,2.89,0.61
			v-1.24c-0.97-0.36-1.94-0.55-2.91-0.53c-0.72,0-1.24,0.11-1.75,0.23c-0.44,0.1-0.89,0.19-1.52,0.23c-0.91,0.06-1.82,0-2.74-0.19
			v1.18C78.75,79.55,79.7,79.62,80.63,79.55z"/>
		<path class="st2" d="M80.63,73.26c0.7-0.06,1.22-0.15,1.67-0.25c0.49-0.1,0.93-0.19,1.52-0.21c0.93-0.02,1.9,0.19,2.89,0.61v-1.24
			c-0.97-0.36-1.96-0.55-2.91-0.53c-0.72,0-1.24,0.11-1.75,0.23c-0.44,0.1-0.89,0.19-1.52,0.23c-0.91,0.06-1.82,0-2.74-0.19v1.18
			C78.75,73.26,79.7,73.33,80.63,73.26z"/>
		<path class="st2" d="M80.63,76.41c0.7-0.06,1.22-0.15,1.67-0.25c0.49-0.1,0.93-0.19,1.52-0.21c0.93-0.02,1.9,0.19,2.89,0.61v-1.24
			c-0.97-0.36-1.96-0.55-2.91-0.53c-0.72,0-1.24,0.11-1.75,0.23c-0.44,0.1-0.89,0.19-1.52,0.23c-0.91,0.06-1.82,0-2.74-0.19v1.18
			C78.75,76.41,79.7,76.47,80.63,76.41z"/>
		<path class="st2" d="M80.63,70.12c0.7-0.06,1.22-0.15,1.67-0.25c0.49-0.1,0.93-0.19,1.52-0.21c0.93-0.02,1.92,0.19,2.89,0.61
			v-1.24c-0.97-0.36-1.94-0.55-2.91-0.53c-0.72,0.02-1.24,0.11-1.75,0.23c-0.44,0.1-0.89,0.19-1.52,0.23
			c-0.91,0.06-1.82,0-2.74-0.19v1.18C78.75,70.12,79.7,70.18,80.63,70.12z"/>
		<path class="st2" d="M80.97,90.13c2.95-0.55,5.49-0.23,7.58,0.93v-0.95l-0.29-0.15c-0.51-0.3-1.88-1.1-4.31-1.16
			c-0.1,0-0.17-0.02-0.27-0.02c-0.19,0-0.42,0.02-0.61,0.04c-0.63,0.04-1.25,0.1-1.92,0.21c-1.67,0.3-3.69,0.21-5.97-0.3l-0.38-0.1
			v-4.14V69.42v-0.87v-1.03v-0.17c-0.34-0.08-0.67-0.17-1.01-0.27v0.15v1.03v2.74v11.88v6.52C76.62,90.27,79.03,90.5,80.97,90.13z"
			/>
		<path class="st2" d="M80.97,92.23c2.95-0.55,5.49-0.23,7.58,0.93v-0.93l-0.13-0.08c-0.04-0.02-0.1-0.06-0.15-0.1
			c-1.9-1.14-4.3-1.44-7.11-0.93c-2.17,0.4-4.87,0.11-8-0.86l-0.34-0.11V80.5v-7.09v-5.44c-0.32-0.11-0.67-0.21-0.99-0.32v23.19
			C75.52,92.21,78.6,92.66,80.97,92.23z"/>
		<path class="st2" d="M97.91,82.44c0.46,0.1,0.97,0.21,1.67,0.25c0.93,0.08,1.88,0,2.81-0.17v-1.18c-0.91,0.19-1.82,0.27-2.74,0.19
			c-0.63-0.04-1.08-0.13-1.52-0.23c-0.51-0.11-1.03-0.21-1.75-0.23c-0.95-0.02-1.92,0.17-2.91,0.53v1.24
			c0.97-0.42,1.96-0.63,2.89-0.61C96.98,82.25,97.41,82.34,97.91,82.44z"/>
		<path class="st2" d="M99.24,90.13c1.92,0.36,4.33,0.11,7.18-0.72v-6.52V71.01v-2.74v-1.03V67.1c-0.34,0.1-0.68,0.19-1.01,0.27
			v0.17v1.03v0.87v15.07v4.14l-0.38,0.1c-2.26,0.51-4.3,0.61-5.97,0.3c-0.67-0.11-1.29-0.19-1.92-0.21
			c-0.21-0.02-0.42-0.04-0.61-0.04c-0.1,0-0.17,0-0.27,0.02c-2.43,0.06-3.8,0.86-4.31,1.16l-0.29,0.15v0.95
			C93.75,89.91,96.29,89.6,99.24,90.13z"/>
		<path class="st2" d="M97.91,79.3c0.46,0.1,0.97,0.21,1.67,0.25c0.93,0.08,1.88,0,2.81-0.17V78.2c-0.91,0.19-1.82,0.27-2.74,0.19
			c-0.63-0.04-1.08-0.13-1.52-0.23c-0.51-0.11-1.03-0.21-1.75-0.23c-0.95-0.02-1.92,0.17-2.91,0.53v1.24
			c0.97-0.42,1.94-0.63,2.89-0.61C96.98,79.11,97.41,79.19,97.91,79.3z"/>
		<path class="st2" d="M63.45,148.96c6.39-1.35,26.36-6.61,39.86-21.8c8.48-9.54,12.94-21.35,13.25-35.09V44.8H63.43v104.16H63.45z
			 M82.34,101.81l-2.03-1.08l-2.03,1.08l0.4-2.28l-1.65-1.62l2.28-0.32l1.03-2.07l1.03,2.07l2.28,0.32l-1.65,1.62L82.34,101.81z
			 M101.96,101.81l-2.03-1.08l-2.03,1.08l0.4-2.28l-1.65-1.62l2.28-0.32l1.03-2.07l1.03,2.07l2.28,0.32l-1.65,1.62L101.96,101.81z
			 M90.67,86.77v-19.6c0.53-0.4,1.1-0.72,1.69-1.03c0.87-0.38,2.24-0.82,4.16-0.82c0.86,0,1.77,0.1,2.72,0.27
			c0.36,0.08,0.76,0.11,1.16,0.13c1.29,0.08,2.78-0.08,4.39-0.44l0.61-0.13v1.18c0.44-0.11,0.89-0.23,1.37-0.38l0.65-0.19v1.18
			c0.44-0.15,0.87-0.3,1.31-0.46l0.67-0.25v25.3l-0.32,0.11c-4.03,1.52-7.39,2.03-10.02,1.54c-2.74-0.51-5.08-0.23-6.96,0.86h-1.43
			V86.77z M91.12,100.38l2.28,0.32l-1.65,1.62l0.4,2.28l-2.03-1.08l-2.03,1.08l0.4-2.28l-1.65-1.62l2.28-0.32l1.03-2.07
			L91.12,100.38z M70.8,66.22l0.67,0.25c0.46,0.17,0.89,0.32,1.31,0.46v-1.18l0.65,0.19c0.48,0.15,0.91,0.27,1.37,0.38v-1.18
			l0.61,0.13c1.63,0.36,3.1,0.51,4.39,0.44c0.4-0.02,0.8-0.08,1.16-0.13c0.93-0.17,1.84-0.27,2.72-0.27c1.92,0,3.29,0.44,4.16,0.82
			c0.59,0.29,1.16,0.63,1.69,1.03v19.6v7.28H88.1c-1.88-1.06-4.22-1.35-6.96-0.86c-2.62,0.49-5.99-0.04-10.02-1.54l-0.32-0.11V66.22
			z"/>
		<path class="st2" d="M99.24,92.23c2.38,0.44,5.46-0.02,9.16-1.37V67.67c-0.34,0.11-0.67,0.23-0.99,0.32v5.44v7.09v9.66l-0.34,0.11
			c-3.14,0.97-5.84,1.25-8,0.86c-2.81-0.51-5.21-0.21-7.11,0.93c-0.06,0.04-0.11,0.06-0.15,0.1l-0.13,0.08v0.93
			C93.75,91.98,96.29,91.67,99.24,92.23z"/>
		<path class="st2" d="M97.91,85.59c0.46,0.1,0.97,0.21,1.67,0.25c0.93,0.08,1.88,0,2.81-0.17v-1.18c-0.91,0.19-1.82,0.27-2.74,0.19
			c-0.63-0.04-1.08-0.13-1.52-0.23c-0.51-0.11-1.03-0.21-1.75-0.23c-0.95-0.02-1.92,0.17-2.91,0.53v1.24
			c0.97-0.42,1.96-0.63,2.89-0.61C96.98,85.4,97.41,85.48,97.91,85.59z"/>
		<path class="st2" d="M97.91,73.01c0.46,0.1,0.97,0.21,1.67,0.25c0.93,0.08,1.88,0,2.81-0.17v-1.18c-0.91,0.19-1.82,0.27-2.74,0.19
			c-0.63-0.04-1.08-0.13-1.52-0.23c-0.51-0.11-1.03-0.21-1.75-0.23c-0.95-0.02-1.92,0.17-2.91,0.53v1.24
			c0.97-0.42,1.96-0.63,2.89-0.61C96.98,72.82,97.41,72.89,97.91,73.01z"/>
		<path class="st2" d="M97.91,69.85c0.46,0.1,0.97,0.21,1.67,0.25c0.93,0.08,1.88,0,2.81-0.17v-1.18c-0.91,0.19-1.82,0.27-2.74,0.19
			c-0.63-0.04-1.08-0.13-1.52-0.23c-0.51-0.11-1.03-0.21-1.75-0.23c-0.95-0.02-1.92,0.17-2.91,0.53v1.24
			c0.97-0.42,1.94-0.63,2.89-0.61C96.98,69.66,97.41,69.76,97.91,69.85z"/>
		<path class="st2" d="M97.91,76.15c0.46,0.1,0.97,0.21,1.67,0.25c0.93,0.08,1.88,0,2.81-0.17v-1.18c-0.91,0.19-1.82,0.27-2.74,0.19
			c-0.63-0.04-1.08-0.13-1.52-0.23c-0.51-0.11-1.03-0.21-1.75-0.23c-0.95-0.04-1.92,0.17-2.91,0.53v1.24
			c0.97-0.42,1.96-0.63,2.89-0.61C96.98,75.96,97.41,76.05,97.91,76.15z"/>
	</g>
</g>
</svg>
