<svg id="School_to_College" data-name="School to College" xmlns="http://www.w3.org/2000/svg" xmlns:xlink="http://www.w3.org/1999/xlink" width="74.665" height="80" viewBox="0 0 74.665 80">
  <defs>
    <clipPath id="clip-path">
      <path id="Path_1638" data-name="Path 1638" d="M0,81.623H0Z" transform="translate(0 -81.623)" fill="none"/>
    </clipPath>
    <clipPath id="clip-path-2">
      <rect id="Rectangle_246" data-name="Rectangle 246" width="74.665" height="80" fill="none"/>
    </clipPath>
  </defs>
  <g id="Group_507" data-name="Group 507" transform="translate(0 79.862)">
    <g id="Group_506" data-name="Group 506" clip-path="url(#clip-path)">
      <path id="Path_1635" data-name="Path 1635" d="M37.738,47.9c-6.576,0-11.927,4.255-11.927,9.482s5.352,9.482,11.927,9.482,11.927-4.255,11.927-9.482S44.314,47.9,37.738,47.9m0,16.254c-5.115,0-9.277-3.038-9.277-6.773S32.623,50.6,37.738,50.6s9.277,3.038,9.277,6.773-4.162,6.773-9.277,6.773" transform="translate(-0.558 -81.623)" fill="#5f6a72"/>
      <rect id="Rectangle_242" data-name="Rectangle 242" width="2.65" height="5.418" transform="translate(31.879 -26.953)" fill="#5f6a72"/>
      <rect id="Rectangle_243" data-name="Rectangle 243" width="2.65" height="5.418" transform="translate(39.831 -26.953)" fill="#5f6a72"/>
      <path id="Path_1636" data-name="Path 1636" d="M31.053,42.479a3.977,3.977,0,1,0-3.976,4.064,4.021,4.021,0,0,0,3.976-4.064m-5.3,0a1.326,1.326,0,1,1,1.326,1.355,1.341,1.341,0,0,1-1.326-1.355" transform="translate(-0.5 -81.623)" fill="#5f6a72"/>
      <path id="Path_1637" data-name="Path 1637" d="M47.4,38.413a4.065,4.065,0,1,0,3.976,4.064A4.021,4.021,0,0,0,47.4,38.413m0,5.418a1.355,1.355,0,1,1,1.326-1.355A1.341,1.341,0,0,1,47.4,43.831" transform="translate(-0.939 -81.623)" fill="#5f6a72"/>
    </g>
  </g>
  <g id="Group_509" data-name="Group 509">
    <g id="Group_508" data-name="Group 508" transform="translate(0 0)" clip-path="url(#clip-path-2)">
      <g id="Group_511" data-name="Group 511" transform="translate(23.264 38.921)">
        <path id="Path_1639" data-name="Path 1639" d="M38.724,49.263c-6.576,0-11.928,4.162-11.928,9.277s5.352,9.278,11.928,9.278,11.928-4.162,11.928-9.278S45.3,49.263,38.724,49.263m0,15.9c-5.115,0-9.278-2.973-9.278-6.627s4.162-6.627,9.278-6.627S48,54.884,48,58.539s-4.162,6.627-9.278,6.627" transform="translate(-24.144 -39.982)" fill="#5f6a72"/>
        <rect id="Rectangle_244" data-name="Rectangle 244" width="2.651" height="5.301" transform="translate(9.279 15.907)" fill="#5f6a72"/>
        <rect id="Rectangle_245" data-name="Rectangle 245" width="2.651" height="5.301" transform="translate(17.231 15.907)" fill="#5f6a72"/>
        <path id="Path_1640" data-name="Path 1640" d="M32.039,43.756a3.976,3.976,0,1,0-3.976,3.977,3.977,3.977,0,0,0,3.976-3.977m-5.3,0a1.326,1.326,0,1,1,1.326,1.327,1.327,1.327,0,0,1-1.326-1.327" transform="translate(-24.086 -39.778)" fill="#5f6a72"/>
        <path id="Path_1641" data-name="Path 1641" d="M48.381,39.778a3.977,3.977,0,1,0,3.976,3.977,3.977,3.977,0,0,0-3.976-3.977m0,5.3a1.326,1.326,0,1,1,1.326-1.326,1.326,1.326,0,0,1-1.326,1.326" transform="translate(-24.524 -39.778)" fill="#5f6a72"/>
      </g>
      <path id="Path_1642" data-name="Path 1642" d="M56.129,31.316H53.464V29.359h.008V17L37.9,21.034a1.321,1.321,0,0,1-.665,0L21.664,17V31.316H19V28.478l.014.015V16.308L1.447,11.754a1.325,1.325,0,0,1,0-2.566L36.886,0h1.359L73.683,9.189a1.321,1.321,0,0,1,.992,1.282V24.921H72.025V12.184l-15.9,4.124V28.493l.009-.008ZM37.565,2.567l-30.5,7.909,30.5,7.908,30.506-7.908Z" transform="translate(-0.01 0)" fill="#c03"/>
      <path id="Path_1643" data-name="Path 1643" d="M53.147,30.53a31.513,31.513,0,0,0-31.806,0v0l-2.667,1.957L21,32.575l-2.309-2.91h0l-.39-.4a10.7,10.7,0,0,0-15.128,0,1.324,1.324,0,0,0,0,1.872l0,0,8.875,8.875A20.909,20.909,0,0,0,9.411,50.079c0,7.045,3.6,13.36,9.278,17.731v8.777a3.98,3.98,0,0,0,3.976,3.976h9.387a3.98,3.98,0,0,0,3.976-3.976v-2.7c.407.016.806.053,1.215.053.448,0,.881-.039,1.326-.057v2.707a3.98,3.98,0,0,0,3.976,3.976h9.386a3.98,3.98,0,0,0,3.973-3.975V67.723c5.615-4.367,9.167-10.649,9.167-17.645A20.905,20.905,0,0,0,62.437,40.01l8.875-8.875a1.323,1.323,0,0,0,0-1.872l0,0a10.7,10.7,0,0,0-15.127,0l-.021.021-2.878,3.294,2.935.978-.415-3.9v2.831l-2.665-1.957h.008M6.06,30.276a8.048,8.048,0,0,1,10.347.843L18.06,32.84a25.134,25.134,0,0,0-4.568,4.87ZM32.052,77.912H22.664a1.328,1.328,0,0,1-1.326-1.326V69.63a30.464,30.464,0,0,0,12.035,4.049l0,2.907a1.327,1.327,0,0,1-1.326,1.326m19.88,0H42.545a1.328,1.328,0,0,1-1.326-1.326V73.664a30.391,30.391,0,0,0,12.035-4.11l0,7.032a1.327,1.327,0,0,1-1.326,1.326M37.243,71.285c-13.885,0-25.182-9.514-25.182-21.206s11.3-21.206,25.182-21.206,25.182,9.514,25.182,21.206-11.3,21.206-25.182,21.206M61,37.712a25.184,25.184,0,0,0-4.57-4.872l1.633-1.7a8.05,8.05,0,0,1,10.369-.862Z" transform="translate(-0.06 -0.563)" fill="#5f6a72"/>
    </g>
  </g>
</svg>
