<svg id="twitter_icon_black" data-name="twitter icon_black" xmlns="http://www.w3.org/2000/svg" width="25" height="20.313" viewBox="0 0 25 20.313">
  <path id="Path_1396" data-name="Path 1396" d="M535.3,403.936a10.67,10.67,0,0,1-2.953.809,5.1,5.1,0,0,0,2.255-2.832,10.269,10.269,0,0,1-3.25,1.24,5.125,5.125,0,0,0-8.866,3.5,5.247,5.247,0,0,0,.119,1.169,14.506,14.506,0,0,1-10.564-5.361,5.125,5.125,0,0,0,1.575,6.85,5.06,5.06,0,0,1-2.316-.632v.057a5.15,5.15,0,0,0,4.106,5.036,5.119,5.119,0,0,1-1.344.168,4.514,4.514,0,0,1-.97-.087,5.175,5.175,0,0,0,4.789,3.57,10.3,10.3,0,0,1-6.354,2.186,9.7,9.7,0,0,1-1.227-.07,14.588,14.588,0,0,0,22.45-12.285c0-.226-.008-.445-.019-.662A10.24,10.24,0,0,0,535.3,403.936Z" transform="translate(-510.3 -401.531)" fill="#fff"/>
</svg>
