<svg id="youtube_icon_black" data-name="youtube icon_black" xmlns="http://www.w3.org/2000/svg" width="25" height="17.188" viewBox="0 0 25 17.188">
  <path id="Path_1398" data-name="Path 1398" d="M619.66,404.285c-.678-1.207-1.414-1.428-2.913-1.513-1.5-.1-5.261-.144-8.522-.144s-7.032.043-8.528.143-2.233.306-2.917,1.514-1.058,3.279-1.058,6.933v.012c0,3.637.36,5.728,1.058,6.92.684,1.207,1.42,1.425,2.916,1.527s5.262.139,8.529.139,7.025-.052,8.524-.138c1.5-.1,2.234-.32,2.912-1.526.705-1.192,1.061-3.283,1.061-6.92v-.013C620.722,407.564,620.366,405.489,619.66,404.285ZM605.1,415.91v-9.375l7.813,4.687Z" transform="translate(-595.722 -402.628)" fill="#fff"/>
</svg>
